<?xml version="1.0" encoding="UTF-8" standalone="no"?><!DOCTYPE svg PUBLIC "-//W3C//DTD SVG 1.1//EN" "http://www.w3.org/Graphics/SVG/1.1/DTD/svg11.dtd"><svg width="100%" height="100%" viewBox="0 0 16 16" version="1.1" xmlns="http://www.w3.org/2000/svg" xmlns:xlink="http://www.w3.org/1999/xlink" xml:space="preserve" xmlns:serif="http://www.serif.com/" style="fill-rule:evenodd;clip-rule:evenodd;stroke-linejoin:round;stroke-miterlimit:2;"><rect id="_001_arrow-circle-full-right" serif:id="001_arrow-circle-full-right" x="0" y="0" width="16" height="16" style="fill:none;"/><clipPath id="_clip1"><rect x="0" y="0" width="16" height="16"/></clipPath><g clip-path="url(#_clip1)"><path d="M8,0c4.419,0 8,3.581 8,8c0,4.419 -3.581,8 -8,8c-4.419,0 -8,-3.581 -8,-8c0,-4.419 3.581,-8 8,-8Zm-3.742,9.419l3.742,0l0,2.287c0,0.346 0.419,0.52 0.661,0.275l3.687,-3.707c0.152,-0.151 0.152,-0.393 0,-0.545l-3.687,-3.71c-0.245,-0.245 -0.661,-0.071 -0.661,0.275l0,2.287l-3.742,-0c-0.213,-0 -0.387,0.174 -0.387,0.387l-0,2.064c-0,0.213 0.174,0.387 0.387,0.387Z" style="fill-rule:nonzero;"/></g></svg>