<?xml version="1.0" encoding="UTF-8" standalone="no"?><!DOCTYPE svg PUBLIC "-//W3C//DTD SVG 1.1//EN" "http://www.w3.org/Graphics/SVG/1.1/DTD/svg11.dtd"><svg width="100%" height="100%" viewBox="0 0 16 16" version="1.1" xmlns="http://www.w3.org/2000/svg" xmlns:xlink="http://www.w3.org/1999/xlink" xml:space="preserve" xmlns:serif="http://www.serif.com/" style="fill-rule:evenodd;clip-rule:evenodd;stroke-linejoin:round;stroke-miterlimit:2;"><rect id="_002_envelope-full" serif:id="002_envelope-full" x="-0" y="0" width="16" height="16" style="fill:none;"/><clipPath id="_clip1"><rect x="-0" y="0" width="16" height="16"/></clipPath><g clip-path="url(#_clip1)"><path d="M15.697,5.962c0.122,-0.096 0.303,-0.006 0.303,0.147l-0,6.391c-0,0.828 -0.672,1.5 -1.5,1.5l-13,-0c-0.828,-0 -1.5,-0.672 -1.5,-1.5l-0,-6.388c-0,-0.156 0.178,-0.243 0.303,-0.146c0.7,0.543 1.628,1.234 4.816,3.55c0.659,0.481 1.772,1.493 2.881,1.487c1.116,0.009 2.25,-1.025 2.884,-1.487c3.188,-2.316 4.113,-3.01 4.813,-3.554Zm-7.697,4.038c0.725,0.012 1.769,-0.913 2.294,-1.294c4.147,-3.009 4.462,-3.272 5.418,-4.022c0.182,-0.14 0.288,-0.359 0.288,-0.59l-0,-0.594c-0,-0.828 -0.672,-1.5 -1.5,-1.5l-13,0c-0.828,0 -1.5,0.672 -1.5,1.5l-0,0.594c-0,0.231 0.106,0.447 0.287,0.59c0.957,0.747 1.272,1.013 5.419,4.022c0.525,0.381 1.569,1.306 2.294,1.294Z" style="fill-rule:nonzero;"/></g></svg>