<?xml version="1.0" encoding="UTF-8" standalone="no"?><!DOCTYPE svg PUBLIC "-//W3C//DTD SVG 1.1//EN" "http://www.w3.org/Graphics/SVG/1.1/DTD/svg11.dtd"><svg width="100%" height="100%" viewBox="0 0 16 16" version="1.1" xmlns="http://www.w3.org/2000/svg" xmlns:xlink="http://www.w3.org/1999/xlink" xml:space="preserve" xmlns:serif="http://www.serif.com/" style="fill-rule:evenodd;clip-rule:evenodd;stroke-linejoin:round;stroke-miterlimit:2;"><rect id="_003_phone-full" serif:id="003_phone-full" x="0" y="0" width="16" height="16" style="fill:none;"/><clipPath id="_clip1"><rect x="0" y="0" width="16" height="16"/></clipPath><g clip-path="url(#_clip1)"><path d="M2.093,0.228c0.271,-0.064 0.694,-0.181 1.219,-0.225c0.194,-0.016 0.36,0.031 0.468,0.209c0.241,0.391 1.864,3.184 1.931,3.298c0.137,0.26 0.131,0.521 -0.073,0.728c-0.29,0.297 -1.444,1.318 -1.695,1.56c-0.196,0.189 -0.246,0.425 -0.114,0.675c0.204,0.382 0.406,0.763 0.629,1.137c0.829,1.382 1.888,2.556 3.226,3.462c0.515,0.35 1.052,0.672 1.593,0.979c0.511,0.288 0.71,0.239 1.107,-0.203c0.368,-0.409 1.285,-1.426 1.388,-1.51c0.209,-0.177 0.437,-0.196 0.677,-0.075c0.067,0.032 1.545,0.881 2.217,1.267c0.36,0.207 0.711,0.429 1.065,0.641c0.191,0.113 0.268,0.278 0.255,0.504c-0.036,0.638 -0.142,1.265 -0.513,1.803c-0.155,0.223 -0.375,0.419 -0.597,0.578c-0.615,0.43 -1.302,0.696 -2.032,0.859c-0.664,0.149 -1.327,0.095 -1.963,-0.104c-1.228,-0.379 -2.439,-0.813 -3.553,-1.47c-1.011,-0.599 -1.932,-1.321 -2.783,-2.129c-1.078,-1.026 -2.041,-2.145 -2.819,-3.419c-0.507,-0.827 -0.87,-1.718 -1.197,-2.627c-0.2,-0.548 -0.395,-1.091 -0.483,-1.672c-0.102,-0.657 -0.031,-1.29 0.179,-1.913c0.189,-0.563 0.426,-1.102 0.783,-1.583c0.281,-0.373 0.631,-0.648 1.085,-0.77Z" style="fill-rule:nonzero;"/></g></svg>