<?xml version="1.0" encoding="UTF-8" standalone="no"?><!DOCTYPE svg PUBLIC "-//W3C//DTD SVG 1.1//EN" "http://www.w3.org/Graphics/SVG/1.1/DTD/svg11.dtd"><svg width="100%" height="100%" viewBox="0 0 16 16" version="1.1" xmlns="http://www.w3.org/2000/svg" xmlns:xlink="http://www.w3.org/1999/xlink" xml:space="preserve" xmlns:serif="http://www.serif.com/" style="fill-rule:evenodd;clip-rule:evenodd;stroke-linejoin:round;stroke-miterlimit:2;"><rect id="_005_arrow-long-right" serif:id="005_arrow-long-right" x="0" y="0" width="16" height="16" style="fill:none;"/><clipPath id="_clip1"><rect x="0" y="0" width="16" height="16"/></clipPath><g clip-path="url(#_clip1)"><path d="M12.707,11.774l3,-3c0.391,-0.39 0.391,-1.024 -0,-1.413l-3,-3c-0.391,-0.391 -1.024,-0.391 -1.414,-0c-0.39,0.391 -0.391,1.024 -0,1.414l1.293,1.293l-11.586,-0c-0.552,-0 -1,0.448 -1,0.999c0,0.552 0.448,1 1,1l11.586,0l-1.293,1.293c-0.195,0.195 -0.293,0.451 -0.293,0.707c-0,0.256 0.098,0.512 0.293,0.707c0.391,0.391 1.024,0.391 1.414,0Z" style="fill-rule:nonzero;"/></g></svg>