<?xml version="1.0" encoding="UTF-8" standalone="no"?><!DOCTYPE svg PUBLIC "-//W3C//DTD SVG 1.1//EN" "http://www.w3.org/Graphics/SVG/1.1/DTD/svg11.dtd"><svg width="100%" height="100%" viewBox="0 0 16 16" version="1.1" xmlns="http://www.w3.org/2000/svg" xmlns:xlink="http://www.w3.org/1999/xlink" xml:space="preserve" xmlns:serif="http://www.serif.com/" style="fill-rule:evenodd;clip-rule:evenodd;stroke-linejoin:round;stroke-miterlimit:2;"><rect id="_008_twitter" serif:id="008_twitter" x="-0" y="0" width="16" height="16" style="fill:none;"/><path d="M16,3.451c-0.588,0.263 -1.222,0.438 -1.884,0.516c0.678,-0.406 1.197,-1.05 1.444,-1.816c-0.634,0.375 -1.338,0.65 -2.083,0.797c-0.6,-0.638 -1.453,-1.034 -2.397,-1.034c-1.812,0 -3.28,1.469 -3.28,3.28c0,0.256 0.028,0.506 0.084,0.747c-2.727,-0.138 -5.146,-1.443 -6.764,-3.43c-0.281,0.484 -0.444,1.05 -0.444,1.65c-0,1.137 0.578,2.143 1.458,2.73c-0.537,-0.016 -1.043,-0.166 -1.487,-0.409l-0,0.041c-0,1.591 1.131,2.918 2.633,3.218c-0.275,0.075 -0.566,0.116 -0.866,0.116c-0.212,0 -0.415,-0.022 -0.618,-0.059c0.418,1.303 1.63,2.253 3.065,2.281c-1.125,0.88 -2.538,1.405 -4.077,1.405c-0.266,0 -0.525,-0.016 -0.784,-0.047c1.456,0.934 3.18,1.475 5.033,1.475c6.035,-0 9.338,-5.002 9.338,-9.339c0,-0.144 -0.003,-0.284 -0.009,-0.425c0.641,-0.458 1.197,-1.037 1.637,-1.696l0.001,-0.001Z" style="fill-rule:nonzero;"/></svg>