<?xml version="1.0" encoding="UTF-8" standalone="no"?><!DOCTYPE svg PUBLIC "-//W3C//DTD SVG 1.1//EN" "http://www.w3.org/Graphics/SVG/1.1/DTD/svg11.dtd"><svg width="100%" height="100%" viewBox="0 0 16 16" version="1.1" xmlns="http://www.w3.org/2000/svg" xmlns:xlink="http://www.w3.org/1999/xlink" xml:space="preserve" xmlns:serif="http://www.serif.com/" style="fill-rule:evenodd;clip-rule:evenodd;stroke-linejoin:round;stroke-miterlimit:2;"><rect id="_009_youtube" serif:id="009_youtube" x="0" y="0" width="16" height="16" style="fill:none;"/><clipPath id="_clip1"><rect x="0" y="0" width="16" height="16"/></clipPath><g clip-path="url(#_clip1)"><path d="M15.666,4.124c-0.184,-0.693 -0.727,-1.239 -1.415,-1.424c-1.248,-0.337 -6.251,-0.337 -6.251,-0.337c0,0 -5.003,0 -6.251,0.337c-0.689,0.185 -1.231,0.731 -1.415,1.424c-0.334,1.255 -0.334,3.875 -0.334,3.875c0,0 0,2.62 0.334,3.876c0.184,0.693 0.726,1.238 1.415,1.424c1.248,0.336 6.251,0.336 6.251,0.336c0,0 5.003,0 6.251,-0.336c0.688,-0.186 1.231,-0.731 1.415,-1.424c0.334,-1.256 0.334,-3.876 0.334,-3.876c0,0 0,-2.62 -0.334,-3.875Zm-9.302,6.254l-0,-4.757l4.181,2.378l-4.181,2.379Z" style="fill-rule:nonzero;"/></g></svg>