<?xml version="1.0" encoding="UTF-8" standalone="no"?><!DOCTYPE svg PUBLIC "-//W3C//DTD SVG 1.1//EN" "http://www.w3.org/Graphics/SVG/1.1/DTD/svg11.dtd"><svg width="100%" height="100%" viewBox="0 0 16 16" version="1.1" xmlns="http://www.w3.org/2000/svg" xmlns:xlink="http://www.w3.org/1999/xlink" xml:space="preserve" xmlns:serif="http://www.serif.com/" style="fill-rule:evenodd;clip-rule:evenodd;stroke-linejoin:round;stroke-miterlimit:2;"><rect id="_010_whatsapp-full" serif:id="010_whatsapp-full" x="0" y="0" width="16" height="16" style="fill:none;"/><path d="M8.002,0l-0.004,0c-4.411,0 -7.998,3.588 -7.998,8c-0,1.75 0.564,3.372 1.523,4.689l-0.997,2.972l3.075,-0.983c1.265,0.838 2.774,1.322 4.401,1.322c4.411,-0 7.998,-3.589 7.998,-8c-0,-4.411 -3.587,-8 -7.998,-8Zm4.655,11.297c-0.193,0.545 -0.959,0.997 -1.57,1.129c-0.418,0.089 -0.964,0.16 -2.802,-0.602c-2.351,-0.974 -3.865,-3.363 -3.983,-3.518c-0.113,-0.155 -0.95,-1.265 -0.95,-2.413c-0,-1.148 0.583,-1.707 0.818,-1.947c0.193,-0.197 0.512,-0.287 0.818,-0.287c0.099,-0 0.188,0.005 0.268,0.009c0.235,0.01 0.353,0.024 0.508,0.395c0.193,0.465 0.663,1.613 0.719,1.731c0.057,0.118 0.114,0.278 0.034,0.433c-0.075,0.16 -0.141,0.231 -0.259,0.367c-0.118,0.136 -0.23,0.24 -0.348,0.386c-0.108,0.127 -0.23,0.263 -0.094,0.498c0.136,0.23 0.606,0.997 1.298,1.613c0.893,0.795 1.617,1.049 1.876,1.157c0.193,0.08 0.423,0.061 0.564,-0.089c0.179,-0.193 0.4,-0.513 0.625,-0.828c0.16,-0.226 0.362,-0.254 0.574,-0.174c0.216,0.075 1.359,0.64 1.594,0.757c0.235,0.118 0.39,0.174 0.447,0.273c0.056,0.099 0.056,0.564 -0.137,1.11Z" style="fill-rule:nonzero;"/></svg>