<?xml version="1.0" encoding="UTF-8" standalone="no"?><!DOCTYPE svg PUBLIC "-//W3C//DTD SVG 1.1//EN" "http://www.w3.org/Graphics/SVG/1.1/DTD/svg11.dtd"><svg width="100%" height="100%" viewBox="0 0 16 16" version="1.1" xmlns="http://www.w3.org/2000/svg" xmlns:xlink="http://www.w3.org/1999/xlink" xml:space="preserve" xmlns:serif="http://www.serif.com/" style="fill-rule:evenodd;clip-rule:evenodd;stroke-linejoin:round;stroke-miterlimit:2;"><rect id="_011_instagram" serif:id="011_instagram" x="0" y="0" width="16" height="16" style="fill:none;"/><clipPath id="_clip1"><rect x="0" y="0" width="16" height="16"/></clipPath><g clip-path="url(#_clip1)"><path d="M8.002,3.898c-2.27,-0 -4.101,1.831 -4.101,4.102c-0,2.271 1.831,4.102 4.101,4.102c2.27,0 4.101,-1.831 4.101,-4.102c0,-2.271 -1.831,-4.102 -4.101,-4.102Zm-0,6.769c-1.467,-0 -2.667,-1.196 -2.667,-2.667c0,-1.471 1.196,-2.667 2.667,-2.667c1.47,0 2.666,1.196 2.666,2.667c0,1.471 -1.199,2.667 -2.666,2.667Zm5.225,-6.937c0,0.532 -0.428,0.957 -0.956,0.957c-0.532,-0 -0.957,-0.429 -0.957,-0.957c0,-0.528 0.429,-0.957 0.957,-0.957c0.528,0 0.956,0.429 0.956,0.957Zm2.717,0.971c-0.061,-1.282 -0.354,-2.417 -1.292,-3.352c-0.936,-0.936 -2.071,-1.229 -3.352,-1.293c-1.321,-0.075 -5.279,-0.075 -6.6,0c-1.278,0.061 -2.413,0.354 -3.352,1.289c-0.938,0.935 -1.228,2.071 -1.292,3.353c-0.075,1.321 -0.075,5.28 0,6.601c0.061,1.282 0.354,2.417 1.292,3.352c0.939,0.936 2.071,1.229 3.352,1.293c1.321,0.075 5.279,0.075 6.6,-0c1.281,-0.061 2.416,-0.354 3.352,-1.293c0.935,-0.935 1.228,-2.07 1.292,-3.352c0.075,-1.321 0.075,-5.277 -0,-6.598Zm-1.706,8.015c-0.279,0.7 -0.818,1.239 -1.521,1.521c-1.053,0.418 -3.552,0.322 -4.715,0.322c-1.164,-0 -3.666,0.092 -4.715,-0.322c-0.7,-0.278 -1.239,-0.817 -1.521,-1.521c-0.418,-1.053 -0.321,-3.552 -0.321,-4.716c-0,-1.164 -0.093,-3.667 0.321,-4.716c0.278,-0.7 0.817,-1.239 1.521,-1.521c1.053,-0.418 3.551,-0.322 4.715,-0.322c1.163,0 3.666,-0.092 4.715,0.322c0.7,0.278 1.239,0.817 1.521,1.521c0.417,1.053 0.321,3.552 0.321,4.716c-0,1.164 0.096,3.667 -0.321,4.716Z" style="fill-rule:nonzero;"/></g></svg>