<?xml version="1.0" encoding="UTF-8" standalone="no"?><!DOCTYPE svg PUBLIC "-//W3C//DTD SVG 1.1//EN" "http://www.w3.org/Graphics/SVG/1.1/DTD/svg11.dtd"><svg width="100%" height="100%" viewBox="0 0 16 16" version="1.1" xmlns="http://www.w3.org/2000/svg" xmlns:xlink="http://www.w3.org/1999/xlink" xml:space="preserve" xmlns:serif="http://www.serif.com/" style="fill-rule:evenodd;clip-rule:evenodd;stroke-linejoin:round;stroke-miterlimit:2;"><rect id="_012_pinterest-full" serif:id="012_pinterest-full" x="0" y="0" width="16" height="16" style="fill:none;"/><clipPath id="_clip1"><rect x="0" y="0" width="16" height="16"/></clipPath><g clip-path="url(#_clip1)"><path d="M7.999,0.001c-4.418,0 -7.999,3.581 -7.999,8c0,3.39 2.11,6.283 5.085,7.447c-0.068,-0.631 -0.134,-1.605 0.029,-2.294c0.144,-0.625 0.938,-3.975 0.938,-3.975c0,-0 -0.237,-0.48 -0.237,-1.187c-0,-1.111 0.645,-1.943 1.446,-1.943c0.682,-0 1.013,0.512 1.013,1.125c0,0.686 -0.436,1.713 -0.664,2.662c-0.191,0.797 0.398,1.446 1.183,1.446c1.421,-0 2.514,-1.501 2.514,-3.665c0,-1.914 -1.378,-3.253 -3.34,-3.253c-2.276,-0 -3.61,1.706 -3.61,3.473c-0,0.689 0.263,1.424 0.595,1.824c0.065,0.08 0.077,0.148 0.055,0.231c-0.061,0.253 -0.195,0.798 -0.224,0.909c-0.036,0.147 -0.116,0.176 -0.267,0.108c-0.999,-0.465 -1.623,-1.926 -1.623,-3.098c0,-2.525 1.832,-4.84 5.284,-4.84c2.774,-0 4.931,1.976 4.931,4.62c-0,2.756 -1.738,4.978 -4.152,4.978c-0.811,-0 -1.572,-0.423 -1.833,-0.92c0,-0 -0.4,1.526 -0.497,1.901c-0.18,0.696 -0.667,1.565 -0.995,2.096c0.75,0.231 1.543,0.356 2.37,0.356c4.418,0 7.999,-3.581 7.999,-7.999c0,-4.422 -3.581,-8.003 -7.999,-8.003l-0.002,0.001Z" style="fill-rule:nonzero;"/></g></svg>