<?xml version="1.0" encoding="UTF-8" standalone="no"?><!DOCTYPE svg PUBLIC "-//W3C//DTD SVG 1.1//EN" "http://www.w3.org/Graphics/SVG/1.1/DTD/svg11.dtd"><svg width="100%" height="100%" viewBox="0 0 16 16" version="1.1" xmlns="http://www.w3.org/2000/svg" xmlns:xlink="http://www.w3.org/1999/xlink" xml:space="preserve" xmlns:serif="http://www.serif.com/" style="fill-rule:evenodd;clip-rule:evenodd;stroke-linejoin:round;stroke-miterlimit:2;"><rect id="_015_exclamation" serif:id="015_exclamation" x="0" y="0" width="16" height="16" style="fill:none;"/><path d="M8,11.381c0.893,0 1.618,0.725 1.618,1.618c-0,0.893 -0.725,1.618 -1.618,1.618c-0.893,0 -1.618,-0.725 -1.618,-1.618c0,-0.893 0.725,-1.618 1.618,-1.618Zm0.7,-9.827c0.386,-0 0.7,0.313 0.7,0.7l-0,6.84c-0,0.387 -0.314,0.7 -0.7,0.7l-1.4,0c-0.386,0 -0.7,-0.313 -0.7,-0.7l0,-6.84c0,-0.387 0.314,-0.7 0.7,-0.7l1.4,-0Z"/></svg>