<?xml version="1.0" encoding="UTF-8" standalone="no"?><!DOCTYPE svg PUBLIC "-//W3C//DTD SVG 1.1//EN" "http://www.w3.org/Graphics/SVG/1.1/DTD/svg11.dtd"><svg width="100%" height="100%" viewBox="0 0 16 16" version="1.1" xmlns="http://www.w3.org/2000/svg" xmlns:xlink="http://www.w3.org/1999/xlink" xml:space="preserve" xmlns:serif="http://www.serif.com/" style="fill-rule:evenodd;clip-rule:evenodd;stroke-linejoin:round;stroke-miterlimit:2;"><rect id="_016_cross-thin" serif:id="016_cross-thin" x="0" y="0" width="16" height="16" style="fill:none;"/><path d="M8,7.095l4.639,-4.639c0.249,-0.249 0.655,-0.25 0.905,0c0.25,0.25 0.249,0.656 -0,0.905l-4.639,4.639l4.639,4.639c0.25,0.249 0.249,0.655 -0,0.905c-0.25,0.249 -0.655,0.249 -0.905,-0l-4.639,-4.639l-4.639,4.639c-0.249,0.249 -0.655,0.249 -0.905,-0c-0.249,-0.25 -0.249,-0.656 0,-0.905l4.639,-4.639l-4.639,-4.639c-0.249,-0.249 -0.249,-0.655 0,-0.905c0.25,-0.249 0.656,-0.249 0.905,0l4.639,4.639Z" style="fill-rule:nonzero;"/></svg>