<?xml version="1.0" encoding="UTF-8" standalone="no"?><!DOCTYPE svg PUBLIC "-//W3C//DTD SVG 1.1//EN" "http://www.w3.org/Graphics/SVG/1.1/DTD/svg11.dtd"><svg width="100%" height="100%" viewBox="0 0 16 16" version="1.1" xmlns="http://www.w3.org/2000/svg" xmlns:xlink="http://www.w3.org/1999/xlink" xml:space="preserve" xmlns:serif="http://www.serif.com/" style="fill-rule:evenodd;clip-rule:evenodd;stroke-linejoin:round;stroke-miterlimit:2;"><rect id="_017_burger-menu" serif:id="017_burger-menu" x="0" y="0" width="16" height="16" style="fill:none;"/><path d="M15.2,2.56l-14.4,0c-0.353,0 -0.64,0.287 -0.64,0.64c0,0.353 0.287,0.64 0.64,0.64l14.4,0c0.353,0 0.64,-0.287 0.64,-0.64c0,-0.353 -0.287,-0.64 -0.64,-0.64" style="fill-rule:nonzero;"/><path d="M15.2,7.36l-14.4,-0c-0.353,-0 -0.64,0.287 -0.64,0.64c0,0.353 0.287,0.64 0.64,0.64l14.4,-0c0.353,-0 0.64,-0.287 0.64,-0.64c0,-0.353 -0.287,-0.64 -0.64,-0.64" style="fill-rule:nonzero;"/><path d="M15.2,12.16l-14.4,-0c-0.353,-0 -0.64,0.287 -0.64,0.64c0,0.353 0.287,0.64 0.64,0.64l14.4,-0c0.353,-0 0.64,-0.287 0.64,-0.64c0,-0.353 -0.287,-0.64 -0.64,-0.64" style="fill-rule:nonzero;"/></svg>