<?xml version="1.0" encoding="UTF-8" standalone="no"?><!DOCTYPE svg PUBLIC "-//W3C//DTD SVG 1.1//EN" "http://www.w3.org/Graphics/SVG/1.1/DTD/svg11.dtd"><svg width="100%" height="100%" viewBox="0 0 16 16" version="1.1" xmlns="http://www.w3.org/2000/svg" xmlns:xlink="http://www.w3.org/1999/xlink" xml:space="preserve" xmlns:serif="http://www.serif.com/" style="fill-rule:evenodd;clip-rule:evenodd;stroke-linejoin:round;stroke-miterlimit:2;"><rect id="_018_lock-full" serif:id="018_lock-full" x="-0" y="0" width="16" height="16" style="fill:none;"/><path d="M2.804,7.298l-0.337,-0c-0.558,-0 -1.011,0.452 -1.011,1.01l0,6.682c0,0.557 0.453,1.01 1.011,1.01l11.066,0c0.558,0 1.011,-0.453 1.011,-1.01l-0,-6.682c-0,-0.558 -0.453,-1.01 -1.011,-1.01l-0.421,-0l-0,-2.144c-0,-2.845 -2.31,-5.154 -5.154,-5.154c-2.845,0 -5.154,2.309 -5.154,5.154l-0,2.144Zm8.031,-0l-5.755,-0l0,-2.144c0,-1.588 1.29,-2.878 2.878,-2.878c1.588,0 2.877,1.29 2.877,2.878l0,2.144Z"/></svg>