<?xml version="1.0" encoding="UTF-8" standalone="no"?><!DOCTYPE svg PUBLIC "-//W3C//DTD SVG 1.1//EN" "http://www.w3.org/Graphics/SVG/1.1/DTD/svg11.dtd"><svg width="100%" height="100%" viewBox="0 0 16 16" version="1.1" xmlns="http://www.w3.org/2000/svg" xmlns:xlink="http://www.w3.org/1999/xlink" xml:space="preserve" xmlns:serif="http://www.serif.com/" style="fill-rule:evenodd;clip-rule:evenodd;stroke-linejoin:round;stroke-miterlimit:2;"><rect id="_019_shopping-trolley" serif:id="019_shopping-trolley" x="0" y="0" width="16" height="16" style="fill:none;"/><path d="M2.935,12.177c-0.956,0 -1.732,0.777 -1.732,1.733c-0,0.956 0.776,1.733 1.732,1.733c0.957,-0 1.733,-0.777 1.733,-1.733c0,-0.956 -0.776,-1.733 -1.733,-1.733Zm6.345,0c-0.956,0 -1.733,0.777 -1.733,1.733c0,0.956 0.777,1.733 1.733,1.733c0.956,-0 1.733,-0.777 1.733,-1.733c-0,-0.956 -0.777,-1.733 -1.733,-1.733Zm-6.345,1.144c0.326,-0 0.59,0.264 0.59,0.589c-0,0.325 -0.264,0.589 -0.59,0.589c-0.325,0 -0.589,-0.264 -0.589,-0.589c0,-0.325 0.264,-0.589 0.589,-0.589Zm6.345,-0c0.325,-0 0.589,0.264 0.589,0.589c0,0.325 -0.264,0.589 -0.589,0.589c-0.325,0 -0.589,-0.264 -0.589,-0.589c-0,-0.325 0.264,-0.589 0.589,-0.589Zm4.558,-7.768l-8.715,-0c-0.315,-0 -0.571,0.256 -0.571,0.571c-0,0.316 0.256,0.572 0.571,0.572l8.107,0l-0.638,1.202c-0.032,-0.006 -0.064,-0.009 -0.097,-0.009l-9.291,0c-0.316,0 -0.572,0.256 -0.572,0.572c0,0.316 0.256,0.572 0.572,0.572l8.785,-0l-0.629,1.185c-0,-0 -10.537,-0 -10.537,-0c-0.315,-0 -0.572,0.256 -0.572,0.572c0,0.315 0.257,0.571 0.572,0.571l10.88,0c0.212,0 0.406,-0.116 0.505,-0.303l3.715,-6.994c0.094,-0.177 0.088,-0.391 -0.015,-0.563c-0.103,-0.172 -0.289,-0.277 -0.49,-0.277l-10.472,0c0,0 -0.665,-1.403 -0.665,-1.403c-0.078,-0.165 -0.231,-0.283 -0.411,-0.317l-3.132,-0.584c-0.31,-0.058 -0.609,0.147 -0.667,0.458c-0.057,0.31 0.147,0.609 0.458,0.666l2.844,0.531c0,-0 0.695,1.466 0.695,1.466c0.094,0.199 0.295,0.327 0.516,0.327l9.883,-0l-0.629,1.185Z"/></svg>