<?xml version="1.0" encoding="UTF-8" standalone="no"?><!DOCTYPE svg PUBLIC "-//W3C//DTD SVG 1.1//EN" "http://www.w3.org/Graphics/SVG/1.1/DTD/svg11.dtd"><svg width="100%" height="100%" viewBox="0 0 16 16" version="1.1" xmlns="http://www.w3.org/2000/svg" xmlns:xlink="http://www.w3.org/1999/xlink" xml:space="preserve" xmlns:serif="http://www.serif.com/" style="fill-rule:evenodd;clip-rule:evenodd;stroke-linejoin:round;stroke-miterlimit:2;"><rect id="_020_star-rounded-full" serif:id="020_star-rounded-full" x="-0" y="0" width="16" height="16" style="fill:none;"/><clipPath id="_clip1"><rect x="-0" y="0" width="16" height="16"/></clipPath><g clip-path="url(#_clip1)"><path d="M7.142,0.876l-1.953,3.959l-4.37,0.637c-0.783,0.114 -1.097,1.08 -0.529,1.633l3.161,3.081l-0.747,4.351c-0.135,0.787 0.693,1.376 1.387,1.008l3.909,-2.055l3.909,2.055c0.694,0.365 1.522,-0.221 1.387,-1.008l-0.747,-4.351l3.161,-3.081c0.568,-0.553 0.254,-1.519 -0.529,-1.633l-4.37,-0.637l-1.953,-3.959c-0.35,-0.706 -1.363,-0.715 -1.716,-0Z" style="fill-rule:nonzero;"/></g></svg>