<?xml version="1.0" encoding="UTF-8" standalone="no"?><!DOCTYPE svg PUBLIC "-//W3C//DTD SVG 1.1//EN" "http://www.w3.org/Graphics/SVG/1.1/DTD/svg11.dtd"><svg width="100%" height="100%" viewBox="0 0 16 16" version="1.1" xmlns="http://www.w3.org/2000/svg" xmlns:xlink="http://www.w3.org/1999/xlink" xml:space="preserve" xmlns:serif="http://www.serif.com/" style="fill-rule:evenodd;clip-rule:evenodd;stroke-linejoin:round;stroke-miterlimit:2;"><rect id="_021_star-rounded-outline" serif:id="021_star-rounded-outline" x="0" y="0" width="16" height="16" style="fill:none;"/><clipPath id="_clip1"><rect x="0" y="0" width="16" height="16"/></clipPath><g clip-path="url(#_clip1)"><path d="M15.181,5.472l-4.37,-0.637l-1.953,-3.959c-0.35,-0.706 -1.363,-0.715 -1.716,-0l-1.953,3.959l-4.37,0.637c-0.783,0.114 -1.097,1.08 -0.529,1.633l3.161,3.081l-0.747,4.351c-0.135,0.787 0.693,1.376 1.387,1.008l3.909,-2.055l3.909,2.055c0.694,0.365 1.522,-0.221 1.387,-1.008l-0.747,-4.351l3.161,-3.081c0.568,-0.553 0.254,-1.519 -0.529,-1.633Zm-4.172,4.211l0.708,4.139l-3.717,-1.953l-3.717,1.953l0.708,-4.139l-3.008,-2.931l4.157,-0.604l1.86,-3.768l1.86,3.768l4.157,0.604l-3.008,2.931Z" style="fill-rule:nonzero;"/></g></svg>