<?xml version="1.0" encoding="UTF-8" standalone="no"?><!DOCTYPE svg PUBLIC "-//W3C//DTD SVG 1.1//EN" "http://www.w3.org/Graphics/SVG/1.1/DTD/svg11.dtd"><svg width="100%" height="100%" viewBox="0 0 16 16" version="1.1" xmlns="http://www.w3.org/2000/svg" xmlns:xlink="http://www.w3.org/1999/xlink" xml:space="preserve" xmlns:serif="http://www.serif.com/" style="fill-rule:evenodd;clip-rule:evenodd;stroke-linejoin:round;stroke-miterlimit:2;"><rect id="_022_info" serif:id="022_info" x="-0" y="0" width="16" height="16" style="fill:none;"/><path d="M8,0c-4.418,0 -8,3.582 -8,8c0,4.418 3.582,8 8,8c4.418,0 8,-3.582 8,-8c-0,-4.418 -3.582,-8 -8,-8Zm-0,14.816c-3.764,-0 -6.816,-3.052 -6.816,-6.816c0,-3.764 3.052,-6.816 6.816,-6.816c3.764,0 6.816,3.052 6.816,6.816c-0,3.764 -3.052,6.816 -6.816,6.816Zm2,-2.816l-4,0l-0,-1l1,0l-0,-3l-1,0l-0,-1l3,0l-0,4l1,0l-0,1Zm-2.009,-8.406c0.668,-0 1.21,0.542 1.21,1.21c0,0.668 -0.542,1.211 -1.21,1.211c-0.668,-0 -1.211,-0.543 -1.211,-1.211c0,-0.668 0.543,-1.21 1.211,-1.21Z"/></svg>