<?xml version="1.0" encoding="UTF-8" standalone="no"?><!DOCTYPE svg PUBLIC "-//W3C//DTD SVG 1.1//EN" "http://www.w3.org/Graphics/SVG/1.1/DTD/svg11.dtd"><svg width="100%" height="100%" viewBox="0 0 16 16" version="1.1" xmlns="http://www.w3.org/2000/svg" xmlns:xlink="http://www.w3.org/1999/xlink" xml:space="preserve" xmlns:serif="http://www.serif.com/" style="fill-rule:evenodd;clip-rule:evenodd;stroke-linejoin:round;stroke-miterlimit:2;"><rect id="_023_open-quote" serif:id="023_open-quote" x="-0" y="0" width="16" height="16" style="fill:none;"/><path d="M2.257,7.826c-0,0 0.812,-0.954 2.083,-0.954c1.619,-0 3.038,1.15 3.038,3.125c0,1.974 -1.688,3.472 -3.645,3.472c-1.957,-0 -3.733,-1.337 -3.733,-3.993c0,-2.657 1.44,-6.29 5.816,-6.945l0.347,0.521c0,0 -3.836,1.104 -3.906,4.774Zm8.621,0c0,0 0.812,-0.954 2.084,-0.954c1.618,-0 3.038,1.15 3.038,3.125c-0,1.974 -1.689,3.472 -3.646,3.472c-1.957,-0 -3.732,-1.337 -3.732,-3.993c-0,-2.657 1.44,-6.29 5.815,-6.945l0.348,0.521c-0,0 -3.837,1.104 -3.907,4.774Z"/></svg>