<?xml version="1.0" encoding="UTF-8" standalone="no"?><!DOCTYPE svg PUBLIC "-//W3C//DTD SVG 1.1//EN" "http://www.w3.org/Graphics/SVG/1.1/DTD/svg11.dtd"><svg width="100%" height="100%" viewBox="0 0 16 16" version="1.1" xmlns="http://www.w3.org/2000/svg" xmlns:xlink="http://www.w3.org/1999/xlink" xml:space="preserve" xmlns:serif="http://www.serif.com/" style="fill-rule:evenodd;clip-rule:evenodd;stroke-linejoin:round;stroke-miterlimit:2;"><rect id="_024_arrow-clockwise" serif:id="024_arrow-clockwise" x="-0" y="0" width="16" height="16" style="fill:none;"/><path d="M7.311,2.925l0,-1.992c0.001,-0.203 0.168,-0.37 0.371,-0.37c0.086,0 0.17,0.031 0.237,0.086l3.494,2.911c0.178,0.148 0.178,0.421 0,0.569l-3.494,2.911c-0.067,0.055 -0.151,0.086 -0.237,0.086c-0.203,-0 -0.37,-0.167 -0.371,-0.37l0,-2.268c-2.27,0.337 -4.035,2.316 -4.035,4.674c-0,2.592 2.133,4.725 4.725,4.725c2.592,-0 4.725,-2.133 4.725,-4.725c-0,-0.681 -0.147,-1.353 -0.431,-1.972c-0.001,-0.003 -0.003,-0.006 -0.004,-0.01c-0.039,-0.093 -0.059,-0.193 -0.059,-0.294c0,-0.425 0.35,-0.775 0.775,-0.775c0.291,-0 0.559,0.164 0.691,0.423c0.002,0.003 0.003,0.007 0.005,0.01c0.377,0.821 0.572,1.714 0.572,2.618c0,3.442 -2.833,6.275 -6.275,6.275c-3.442,-0 -6.275,-2.833 -6.275,-6.275c-0,-3.21 2.463,-5.89 5.586,-6.237Z"/></svg>