<?xml version="1.0" encoding="UTF-8" standalone="no"?><!DOCTYPE svg PUBLIC "-//W3C//DTD SVG 1.1//EN" "http://www.w3.org/Graphics/SVG/1.1/DTD/svg11.dtd"><svg width="100%" height="100%" viewBox="0 0 16 16" version="1.1" xmlns="http://www.w3.org/2000/svg" xmlns:xlink="http://www.w3.org/1999/xlink" xml:space="preserve" xmlns:serif="http://www.serif.com/" style="fill-rule:evenodd;clip-rule:evenodd;stroke-linejoin:round;stroke-miterlimit:2;"><rect id="_025_shopping-cart-empty" serif:id="025_shopping-cart-empty" x="0" y="0" width="16" height="16" style="fill:none;"/><g id="strokes"><path d="M5.318,12.279c-0.957,0 -1.733,0.777 -1.733,1.733c-0,0.956 0.776,1.733 1.733,1.733c0.956,-0 1.732,-0.777 1.732,-1.733c0,-0.956 -0.776,-1.733 -1.732,-1.733Zm6.344,0c-0.956,0 -1.732,0.777 -1.732,1.733c-0,0.956 0.776,1.733 1.732,1.733c0.957,-0 1.733,-0.777 1.733,-1.733c-0,-0.956 -0.776,-1.733 -1.733,-1.733Zm-6.344,1.144c0.325,-0 0.589,0.264 0.589,0.589c-0,0.325 -0.264,0.589 -0.589,0.589c-0.326,0 -0.59,-0.264 -0.59,-0.589c0,-0.325 0.264,-0.589 0.59,-0.589Zm6.344,-0c0.325,-0 0.589,0.264 0.589,0.589c0,0.325 -0.264,0.589 -0.589,0.589c-0.325,0 -0.589,-0.264 -0.589,-0.589c0,-0.325 0.264,-0.589 0.589,-0.589Zm-7.264,-4.111l9.854,-0.481c0.257,-0.012 0.474,-0.195 0.53,-0.446l1.186,-5.321c0.037,-0.17 -0.004,-0.347 -0.112,-0.482c-0.109,-0.136 -0.273,-0.214 -0.447,-0.214l-12.31,0.02l-0.315,-1.681c-0.049,-0.259 -0.275,-0.448 -0.54,-0.448l-1.674,-0.004c-0.304,-0 -0.551,0.246 -0.551,0.549c-0.001,0.304 0.245,0.551 0.548,0.551l1.22,0.003c-0,-0 1.82,9.703 1.82,9.703c0.048,0.259 0.275,0.448 0.539,0.448l9.846,0.014c0.304,0 0.551,-0.246 0.551,-0.549c0,-0.304 -0.246,-0.551 -0.549,-0.551l-9.39,-0.013l-0.206,-1.098Zm-1.084,-5.781l0.871,4.647l9.577,-0.467c-0,-0 0.935,-4.199 0.935,-4.199l-11.383,0.019Z"/></g></svg>