<?xml version="1.0" encoding="UTF-8" standalone="no"?><!DOCTYPE svg PUBLIC "-//W3C//DTD SVG 1.1//EN" "http://www.w3.org/Graphics/SVG/1.1/DTD/svg11.dtd"><svg width="100%" height="100%" viewBox="0 0 16 16" version="1.1" xmlns="http://www.w3.org/2000/svg" xmlns:xlink="http://www.w3.org/1999/xlink" xml:space="preserve" xmlns:serif="http://www.serif.com/" style="fill-rule:evenodd;clip-rule:evenodd;stroke-linejoin:round;stroke-miterlimit:2;"><rect id="_026_envelope-outline" serif:id="026_envelope-outline" x="-0" y="0" width="16" height="16" style="fill:none;"/><clipPath id="_clip1"><rect x="-0" y="0" width="16" height="16"/></clipPath><g clip-path="url(#_clip1)"><path d="M0.009,5.28c0.001,-0.602 0.002,-1.203 0.004,-1.804c0.007,-0.738 0.628,-1.43 1.409,-1.464c0.019,-0.001 0.038,-0.001 0.057,-0.002c4.349,-0.013 8.699,-0.013 13.048,0c0.739,0.007 1.43,0.628 1.464,1.409c0.001,0.019 0.002,0.038 0.002,0.057c0.009,3.024 0.009,6.049 -0,9.073c-0.007,0.738 -0.628,1.429 -1.409,1.464c-0.019,0.001 -0.038,0.001 -0.057,0.001c-4.349,0.014 -8.699,0.014 -13.048,0c-0.738,-0.007 -1.43,-0.628 -1.464,-1.408c-0.001,-0.019 -0.001,-0.038 -0.002,-0.057c-0.007,-2.356 -0.009,-4.711 -0.005,-7.067c-0.011,-0.067 -0.011,-0.135 0.001,-0.202Zm1.14,1.235c-0.011,2.011 -0.017,4.021 0.015,6.031c0.004,0.166 0.146,0.315 0.32,0.318c4.347,0.041 8.694,0.069 13.04,-0c0.168,-0.004 0.316,-0.152 0.318,-0.32c0.019,-1.981 0.034,-3.963 0.028,-5.944l-5.082,3.759c-0.973,0.716 -2.434,0.741 -3.382,0.045l-5.257,-3.889Zm13.713,-1.346c-0.004,-0.564 -0.011,-1.127 -0.02,-1.69c-0.003,-0.166 -0.146,-0.315 -0.32,-0.318c-4.344,-0.041 -8.688,-0 -13.032,-0c-0.171,0 -0.324,0.145 -0.326,0.322c-0.002,0.534 -0.004,1.067 -0.007,1.601c1.98,1.465 3.956,2.936 5.941,4.395c0.406,0.294 0.965,0.339 1.459,0.206c0.195,-0.052 0.383,-0.136 0.546,-0.255l5.759,-4.261Z"/></g></svg>