<?xml version="1.0" encoding="UTF-8" standalone="no"?><!DOCTYPE svg PUBLIC "-//W3C//DTD SVG 1.1//EN" "http://www.w3.org/Graphics/SVG/1.1/DTD/svg11.dtd"><svg width="100%" height="100%" viewBox="0 0 16 16" version="1.1" xmlns="http://www.w3.org/2000/svg" xmlns:xlink="http://www.w3.org/1999/xlink" xml:space="preserve" xmlns:serif="http://www.serif.com/" style="fill-rule:evenodd;clip-rule:evenodd;stroke-linejoin:round;stroke-miterlimit:2;"><rect id="_027_exclamation-outline" serif:id="027_exclamation-outline" x="0" y="0" width="16" height="16" style="fill:none;"/><clipPath id="_clip1"><rect x="0" y="0" width="16" height="16"/></clipPath><g clip-path="url(#_clip1)"><path d="M8,-0c-4.418,-0 -8,3.582 -8,8c0,4.418 3.582,8 8,8c4.418,-0 8,-3.582 8,-8c0,-4.418 -3.582,-8 -8,-8Zm0,14.816c-3.764,-0 -6.816,-3.052 -6.816,-6.816c0,-3.764 3.052,-6.816 6.816,-6.816c3.764,0 6.816,3.052 6.816,6.816c-0,3.764 -3.052,6.816 -6.816,6.816Zm0.054,-4.107c0.625,0 1.131,0.507 1.131,1.131c0,0.624 -0.506,1.131 -1.131,1.131c-0.624,-0 -1.13,-0.507 -1.13,-1.131c-0,-0.624 0.506,-1.131 1.13,-1.131Zm0.49,-1.109l-0.979,0c-0.27,0 -0.489,-0.219 -0.489,-0.489l-0,-4.782c-0,-0.27 0.219,-0.489 0.489,-0.489l0.979,0c0.27,0 0.489,0.219 0.489,0.489l-0,4.782c-0,0.27 -0.219,0.489 -0.489,0.489Z" style="fill-rule:nonzero;"/></g></svg>