<?xml version="1.0" encoding="UTF-8" standalone="no"?><!DOCTYPE svg PUBLIC "-//W3C//DTD SVG 1.1//EN" "http://www.w3.org/Graphics/SVG/1.1/DTD/svg11.dtd"><svg width="100%" height="100%" viewBox="0 0 16 16" version="1.1" xmlns="http://www.w3.org/2000/svg" xmlns:xlink="http://www.w3.org/1999/xlink" xml:space="preserve" xmlns:serif="http://www.serif.com/" style="fill-rule:evenodd;clip-rule:evenodd;stroke-linejoin:round;stroke-miterlimit:2;"><rect id="_028_lightbulb-on" serif:id="028_lightbulb-on" x="-0" y="0" width="16" height="16" style="fill:none;"/><path d="M9.177,15.545l-2.248,0c-0.043,-0.029 -0.085,-0.058 -0.128,-0.087c-0.504,-0.349 -0.925,-0.845 -1.015,-1.443c-0.115,-0.756 0.034,-1.545 -0.023,-2.302c-0.055,-0.724 -0.649,-1.299 -1.137,-1.903c-0.613,-0.761 -1.139,-1.613 -1.343,-2.555c-0.271,-1.246 -0.069,-2.596 0.61,-3.667c0.624,-0.987 1.639,-1.708 2.768,-2.01c2.061,-0.552 4.477,0.211 5.613,2.108c0.825,1.379 0.877,3.182 0.18,4.646c-0.463,0.973 -1.304,1.712 -1.846,2.623c-0.169,0.285 -0.269,0.604 -0.27,0.956c-0.003,0.723 0.095,1.458 -0.026,2.158c-0.1,0.576 -0.52,1.051 -1.007,1.389l-0.128,0.087Zm0.284,-1.939l-2.826,-0c0.011,0.125 0.029,0.249 0.057,0.372c0.06,0.268 0.285,0.481 0.521,0.668c0,0 1.679,0.001 1.679,0.001c0,-0.001 0,-0.001 0.001,-0.001c0.261,-0.207 0.497,-0.46 0.543,-0.79c0.011,-0.083 0.019,-0.167 0.025,-0.25Zm-0.027,-1.684l-2.768,0c0,0.308 -0.024,0.619 -0.038,0.928l2.833,-0c-0.013,-0.307 -0.033,-0.617 -0.027,-0.928Zm0.106,-0.756c0.219,-0.71 0.768,-1.335 1.241,-1.92c0.516,-0.641 0.975,-1.348 1.155,-2.142c0.31,-1.359 -0.103,-2.881 -1.132,-3.805c-1.491,-1.339 -4.077,-1.347 -5.571,0.064c-1.198,1.132 -1.504,3.085 -0.749,4.627c0.309,0.631 0.771,1.167 1.222,1.723c0.357,0.443 0.684,0.924 0.848,1.453l2.986,-0Zm5.826,-4.439c0.267,0.015 0.457,0.378 0.253,0.602c-0.068,0.073 -0.165,0.115 -0.266,0.117l-1.187,-0c-0.276,-0.005 -0.465,-0.383 -0.265,-0.602c0.067,-0.073 0.164,-0.115 0.265,-0.117c0.4,0 0.8,-0.007 1.2,0Zm-13.533,0.719l-1.188,-0c-0.274,-0.005 -0.469,-0.378 -0.265,-0.602c0.067,-0.073 0.165,-0.115 0.265,-0.117c0.401,0 0.801,-0.007 1.201,0c0.272,0.015 0.448,0.387 0.252,0.602c-0.067,0.073 -0.165,0.115 -0.265,0.117Zm6.189,-4.186c0.32,0.023 0.516,0.513 0.189,0.718c-0.039,0.025 -0.083,0.042 -0.128,0.052c-0.099,0.02 -0.297,0.011 -0.457,0.036c-0.967,0.149 -1.76,1.007 -1.748,2.052c0,-0 -0.027,0.235 -0.18,0.332c-0.241,0.155 -0.6,-0.039 -0.599,-0.377c0.003,-0.804 0.355,-1.6 0.961,-2.121c0.532,-0.457 1.238,-0.691 1.943,-0.693c0.006,0 0.013,0 0.019,0.001Zm-7.31,-0.192c0.037,0.002 0.058,0.003 0.111,0.021l1.114,0.41c0.256,0.099 0.314,0.512 0.044,0.655c-0.088,0.047 -0.195,0.053 -0.292,0.019l-1.114,-0.409c-0.307,-0.119 -0.284,-0.691 0.125,-0.697c0.004,0 0.008,0.001 0.012,0.001Zm14.599,-0c0.323,0.016 0.494,0.548 0.113,0.696l-1.115,0.409c-0.292,0.102 -0.638,-0.302 -0.391,-0.577c0.039,-0.043 0.088,-0.076 0.143,-0.097l1.115,-0.41c0.095,-0.032 0.069,-0.022 0.135,-0.021Zm-12.527,-2.782c0.04,0.002 0.052,0.004 0.076,0.01c0.064,0.015 0.122,0.049 0.17,0.095l0.839,0.84c0.22,0.227 -0.009,0.717 -0.37,0.594c-0.051,-0.017 -0.098,-0.047 -0.138,-0.086l-0.839,-0.839c-0.201,-0.207 -0.07,-0.616 0.262,-0.614Zm10.453,0c0.276,0.015 0.457,0.39 0.24,0.614l-0.839,0.839c-0.199,0.193 -0.602,0.064 -0.614,-0.24c-0.003,-0.099 0.036,-0.197 0.105,-0.268l0.84,-0.84c0.029,-0.028 0.039,-0.035 0.059,-0.048c0.063,-0.04 0.11,-0.059 0.209,-0.057Z"/></svg>